# Blender v2.80 (sub 75) OBJ File: 'MCOTMC_April2023_Monk_Source.blend'
# www.blender.org
mtllib cup_filled.mtl
o cup_filled_Cylinder.293
v -0.000000 -0.000001 -0.000000
v -0.000000 0.205060 -0.097400
v 0.057250 0.205060 -0.078798
v 0.092633 0.205060 -0.030098
v 0.092633 0.205060 0.030098
v 0.057250 0.205060 0.078798
v -0.000000 0.205060 0.097400
v -0.057250 0.205060 0.078798
v -0.092633 0.205060 0.030098
v -0.092633 0.205060 -0.030098
v -0.057250 0.205060 -0.078798
v 0.086952 0.205060 -0.119679
v -0.000000 0.205060 -0.147932
v 0.140691 0.205060 -0.045713
v 0.140691 0.205060 0.045713
v 0.086952 0.205060 0.119679
v -0.000000 0.205060 0.147932
v -0.086952 0.205060 0.119679
v -0.140691 0.205060 0.045713
v -0.140691 0.205060 -0.045713
v -0.086952 0.205060 -0.119679
v -0.000000 0.158019 0.000000
v -0.000000 0.102530 -0.143583
v 0.084396 0.102530 -0.116161
v 0.136556 0.102530 -0.044370
v 0.136556 0.102530 0.044370
v 0.084396 0.102530 0.116161
v -0.000000 0.102530 0.143583
v -0.084396 0.102530 0.116161
v -0.136556 0.102530 0.044370
v -0.136556 0.102530 -0.044370
v -0.084396 0.102530 -0.116161
v -0.000000 0.213424 -0.127018
v 0.074659 0.213424 -0.102760
v 0.120801 0.213424 -0.039251
v 0.120801 0.213424 0.039251
v 0.074659 0.213424 0.102760
v -0.000000 0.213424 0.127018
v -0.074659 0.213424 0.102760
v -0.120801 0.213424 0.039251
v -0.120801 0.213424 -0.039251
v -0.074659 0.213424 -0.102760
v -0.000000 -0.000001 -0.092696
v 0.059205 -0.000001 -0.074992
v 0.095796 -0.000001 -0.028644
v 0.095796 -0.000001 0.028644
v 0.059205 -0.000001 0.074992
v -0.000000 -0.000001 0.092696
v -0.059205 -0.000001 0.074992
v -0.095796 -0.000001 0.028645
v -0.095796 -0.000001 -0.028644
v -0.059205 -0.000001 -0.074992
v 0.054990 0.158019 -0.069652
v -0.000000 0.158019 -0.086095
v 0.088975 0.158019 -0.026605
v 0.088975 0.158019 0.026605
v 0.054990 0.158019 0.069652
v -0.000000 0.158019 0.086095
v -0.054990 0.158019 0.069652
v -0.088975 0.158019 0.026605
v -0.088975 0.158019 -0.026605
v -0.054990 0.158019 -0.069652
vt 1.000000 0.750000
vt 1.000000 1.000000
vt 0.900000 1.000000
vt 0.900000 0.750000
vt 0.800000 1.000000
vt 0.800000 0.750000
vt 0.700000 1.000000
vt 0.700000 0.750000
vt 0.600000 1.000000
vt 0.600000 0.750000
vt 0.500000 1.000000
vt 0.500000 0.750000
vt 0.400000 1.000000
vt 0.400000 0.750000
vt 0.300000 1.000000
vt 0.300000 0.750000
vt 0.200000 1.000000
vt 0.200000 0.750000
vt 0.351182 0.110735
vt 0.413716 0.196806
vt 0.413716 0.196806
vt 0.351182 0.110735
vt 0.100000 1.000000
vt 0.100000 0.750000
vt -0.000000 1.000000
vt -0.000000 0.750000
vt 0.250000 0.456071
vt 0.371125 0.416715
vt 0.391068 0.444164
vt 0.250000 0.490000
vt 0.445985 0.313679
vt 0.478254 0.324164
vt 0.445985 0.186321
vt 0.478254 0.175836
vt 0.371125 0.083285
vt 0.391068 0.055836
vt 0.250000 0.043930
vt 0.250000 0.010000
vt 0.128875 0.083286
vt 0.108932 0.055836
vt 0.054015 0.186321
vt 0.021746 0.175836
vt 0.054015 0.313679
vt 0.021746 0.324164
vt 0.128875 0.416715
vt 0.108932 0.444164
vt 0.351182 0.389265
vt 0.250000 0.422141
vt 0.250000 0.422141
vt 0.351182 0.389265
vt 0.086284 0.303194
vt 0.086284 0.196805
vt 0.086284 0.196805
vt 0.086284 0.303194
vt 0.250000 0.077859
vt 0.250000 0.077859
vt 0.413716 0.303194
vt 0.413716 0.303194
vt 0.148818 0.389265
vt 0.148818 0.389265
vt 0.148818 0.110735
vt 0.148818 0.110735
vt 0.100000 0.500000
vt -0.000000 0.500000
vt 0.200000 0.500000
vt 0.300000 0.500000
vt 0.400000 0.500000
vt 0.500000 0.500000
vt 0.600000 0.500000
vt 0.700000 0.500000
vt 0.800000 0.500000
vt 0.900000 0.500000
vt 1.000000 0.500000
vt 0.750000 0.412575
vt 0.750000 0.490000
vt 0.891068 0.444164
vt 0.850851 0.379806
vt 0.978254 0.324164
vt 0.909988 0.298411
vt 0.978254 0.175836
vt 0.909988 0.201589
vt 0.891068 0.055836
vt 0.850851 0.120194
vt 0.750000 0.010000
vt 0.750000 0.087425
vt 0.608932 0.055836
vt 0.649149 0.120194
vt 0.521746 0.175836
vt 0.590012 0.201589
vt 0.521746 0.324164
vt 0.590012 0.298411
vt 0.608932 0.444164
vt 0.649149 0.379806
vt 0.330063 0.355470
vt 0.377868 0.289671
vt 0.377868 0.210329
vt 0.330063 0.144530
vt 0.250000 0.118516
vt 0.169937 0.144530
vt 0.122132 0.210329
vt 0.122132 0.289671
vt 0.169937 0.355470
vt 0.250000 0.381484
vn 0.0000 -0.2365 -0.9716
vn 0.0000 -0.0424 -0.9991
vn 0.5873 -0.0424 -0.8083
vn 0.5659 -0.2290 -0.7921
vn 0.9502 -0.0424 -0.3087
vn 0.9270 -0.2161 -0.3064
vn 0.9502 -0.0424 0.3087
vn 0.9270 -0.2161 0.3064
vn 0.5873 -0.0424 0.8083
vn 0.5659 -0.2290 0.7921
vn 0.0000 -0.0424 0.9991
vn 0.0000 -0.2365 0.9716
vn -0.5873 -0.0424 0.8083
vn -0.5659 -0.2290 0.7921
vn -0.9502 -0.0424 0.3087
vn -0.9270 -0.2161 0.3064
vn -0.9502 -0.0424 -0.3087
vn -0.9270 -0.2161 -0.3064
vn -0.5557 0.1803 -0.8116
vn -0.9395 0.1102 -0.3243
vn -0.9455 0.1087 -0.3070
vn -0.5784 0.1767 -0.7964
vn -0.5873 -0.0424 -0.8083
vn -0.5659 -0.2290 -0.7921
vn -0.0000 0.9932 -0.1161
vn 0.0683 0.9932 -0.0939
vn 0.2183 0.9285 -0.3004
vn 0.0000 0.9285 -0.3713
vn 0.1104 0.9932 -0.0359
vn 0.3531 0.9285 -0.1147
vn 0.1104 0.9932 0.0359
vn 0.3531 0.9285 0.1147
vn 0.0683 0.9932 0.0939
vn 0.2183 0.9285 0.3004
vn 0.0000 0.9932 0.1161
vn 0.0000 0.9285 0.3713
vn -0.0683 0.9932 0.0939
vn -0.2183 0.9285 0.3004
vn -0.1104 0.9932 0.0359
vn -0.3531 0.9285 0.1147
vn -0.1104 0.9932 -0.0359
vn -0.3531 0.9285 -0.1147
vn -0.0683 0.9932 -0.0939
vn -0.2183 0.9285 -0.3004
vn -0.5557 0.1803 0.8116
vn -0.0000 0.2194 0.9756
vn -0.5784 0.1767 0.7964
vn 0.9395 0.1102 0.3243
vn 0.9395 0.1102 -0.3243
vn 0.9455 0.1087 -0.3070
vn 0.9455 0.1087 0.3070
vn -0.0000 0.2194 -0.9756
vn -0.9395 0.1102 0.3243
vn -0.9455 0.1087 0.3070
vn 0.5557 0.1803 0.8116
vn 0.5784 0.1767 0.7964
vn 0.5557 0.1803 -0.8116
vn 0.5784 0.1767 -0.7964
vn -0.5278 -0.4227 -0.7367
vn 0.0000 -0.4382 -0.8989
vn -0.8717 -0.3972 -0.2870
vn -0.8717 -0.3972 0.2870
vn -0.5278 -0.4227 0.7367
vn 0.0000 -0.4382 0.8989
vn 0.5278 -0.4227 0.7367
vn 0.8717 -0.3972 0.2870
vn 0.8717 -0.3972 -0.2870
vn 0.5278 -0.4227 -0.7367
vn 0.1597 0.9624 0.2199
vn -0.0000 0.9624 0.2718
vn 0.2585 0.9624 0.0840
vn 0.2585 0.9624 -0.0840
vn 0.1597 0.9624 -0.2199
vn -0.0000 0.9624 -0.2718
vn -0.1597 0.9624 -0.2199
vn -0.2585 0.9624 -0.0840
vn -0.2585 0.9624 0.0840
vn -0.1597 0.9624 0.2199
vn 0.0000 -1.0000 0.0000
vn 0.0000 1.0000 0.0000
usemtl WoodDark
s 1
f 23/1/1 13/2/2 12/3/3 24/4/4
s 2
f 24/4/4 12/3/3 14/5/5 25/6/6
s 3
f 25/6/6 14/5/5 15/7/7 26/8/8
s 4
f 26/8/8 15/7/7 16/9/9 27/10/10
s 5
f 27/10/10 16/9/9 17/11/11 28/12/12
s 6
f 28/12/12 17/11/11 18/13/13 29/14/14
s 7
f 29/14/14 18/13/13 19/15/15 30/16/16
s 8
f 30/16/16 19/15/15 20/17/17 31/18/18
s 9
f 6/19/19 5/20/20 56/21/21 57/22/22
s 10
f 31/18/18 20/17/17 21/23/23 32/24/24
s 11
f 32/24/24 21/23/23 13/25/2 23/26/1
s 12
f 33/27/25 34/28/26 12/29/27 13/30/28
s 13
f 34/28/26 35/31/29 14/32/30 12/29/27
s 14
f 35/31/29 36/33/31 15/34/32 14/32/30
s 15
f 36/33/31 37/35/33 16/36/34 15/34/32
s 16
f 37/35/33 38/37/35 17/38/36 16/36/34
s 17
f 38/37/35 39/39/37 18/40/38 17/38/36
s 18
f 39/39/37 40/41/39 19/42/40 18/40/38
s 19
f 40/41/39 41/43/41 20/44/42 19/42/40
s 20
f 41/43/41 42/45/43 21/46/44 20/44/42
s 21
f 42/45/43 33/27/25 13/30/28 21/46/44
s 22
f 3/47/45 2/48/46 54/49/46 53/50/47
s 23
f 10/51/48 9/52/49 60/53/50 61/54/51
s 24
f 7/55/52 6/19/19 57/22/22 58/56/52
s 25
f 4/57/53 3/47/45 53/50/47 55/58/54
s 26
f 11/59/55 10/51/48 61/54/51 62/60/56
s 27
f 8/61/57 7/55/52 58/56/52 59/62/58
s 28
f 5/20/20 4/57/53 55/58/54 56/21/21
s 29
f 2/48/46 11/59/55 62/60/56 54/49/46
s 30
f 9/52/49 8/61/57 59/62/58 60/53/50
s 31
f 52/63/59 32/24/24 23/26/1 43/64/60
s 32
f 51/65/61 31/18/18 32/24/24 52/63/59
s 33
f 50/66/62 30/16/16 31/18/18 51/65/61
s 34
f 49/67/63 29/14/14 30/16/16 50/66/62
s 35
f 48/68/64 28/12/12 29/14/14 49/67/63
s 36
f 47/69/65 27/10/10 28/12/12 48/68/64
s 37
f 46/70/66 26/8/8 27/10/10 47/69/65
s 38
f 45/71/67 25/6/6 26/8/8 46/70/66
s 39
f 44/72/68 24/4/4 25/6/6 45/71/67
s 40
f 43/73/60 23/1/1 24/4/4 44/72/68
s 41
f 11/59/69 2/48/70 33/27/25 42/45/43
s 42
f 10/51/71 11/59/69 42/45/43 41/43/41
s 43
f 9/52/72 10/51/71 41/43/41 40/41/39
s 44
f 8/61/73 9/52/72 40/41/39 39/39/37
s 45
f 7/55/74 8/61/73 39/39/37 38/37/35
s 46
f 6/19/75 7/55/74 38/37/35 37/35/33
s 47
f 5/20/76 6/19/75 37/35/33 36/33/31
s 48
f 4/57/77 5/20/76 36/33/31 35/31/29
s 49
f 3/47/78 4/57/77 35/31/29 34/28/26
s 50
f 2/48/70 3/47/78 34/28/26 33/27/25
s 51
f 1/74/79 43/75/79 44/76/79
s 52
f 1/77/79 44/76/79 45/78/79
s 53
f 1/79/79 45/78/79 46/80/79
s 54
f 1/81/79 46/80/79 47/82/79
s 55
f 1/83/79 47/82/79 48/84/79
s 56
f 1/85/79 48/84/79 49/86/79
s 57
f 1/87/79 49/86/79 50/88/79
s 58
f 1/89/79 50/88/79 51/90/79
s 59
f 1/91/79 51/90/79 52/92/79
s 60
f 1/93/79 52/92/79 43/75/79
usemtl OliveGreen
s 61
f 22/94/80 53/50/80 54/49/80
s 62
f 22/95/80 55/58/80 53/50/80
s 63
f 22/96/80 56/21/80 55/58/80
s 64
f 22/97/80 57/22/80 56/21/80
s 65
f 22/98/80 58/56/80 57/22/80
s 66
f 22/99/80 59/62/80 58/56/80
s 67
f 22/100/80 60/53/80 59/62/80
s 68
f 22/101/80 61/54/80 60/53/80
s 69
f 22/102/80 62/60/80 61/54/80
s 70
f 22/103/80 54/49/80 62/60/80
