# Blender v2.80 (sub 75) OBJ File: 'MCOTMC_April2023_Monk_Source.blend'
# www.blender.org
mtllib stand.mtl
o stand_Cylinder.291
v -0.000000 0.050232 0.000000
v 0.000000 0.090931 -0.229713
v 0.162432 0.090931 -0.162432
v 0.229713 0.090931 0.000000
v 0.162432 0.090931 0.162432
v -0.000000 0.090931 0.229713
v -0.162432 0.090931 0.162432
v -0.229713 0.090931 0.000000
v -0.162432 0.090931 -0.162432
v 0.000000 0.050232 -0.263840
v 0.186563 0.050232 -0.186563
v 0.263840 0.050232 0.000000
v 0.186563 0.050232 0.186563
v -0.000000 0.050232 0.263840
v -0.186563 0.050232 0.186563
v -0.263840 0.050232 0.000000
v -0.186563 0.050232 -0.186563
v 0.200086 0.090931 -0.200086
v 0.000000 0.090931 -0.282964
v 0.282964 0.090931 0.000000
v 0.200086 0.090931 0.200086
v -0.000000 0.090931 0.282964
v -0.200086 0.090931 0.200086
v -0.282964 0.090931 0.000000
v -0.200086 0.090931 -0.200086
v 0.000000 0.071699 0.000000
v 0.124377 -0.000001 0.124371
v 0.124377 0.054714 0.066745
v 0.174283 0.054714 0.095558
v 0.174283 0.054714 0.153184
v 0.124377 0.054714 0.181997
v 0.074471 0.054714 0.153184
v 0.074471 0.054714 0.095558
v 0.124377 -0.000001 0.076649
v 0.165705 -0.000001 0.100510
v 0.165705 -0.000001 0.148231
v 0.124377 -0.000001 0.172092
v 0.083049 -0.000001 0.148231
v 0.083049 -0.000001 0.100510
v 0.083049 -0.000001 -0.148231
v 0.083049 -0.000001 -0.100510
v 0.124377 -0.000001 -0.076649
v 0.165705 -0.000001 -0.100510
v 0.165705 -0.000001 -0.148231
v 0.124377 -0.000001 -0.172092
v 0.074471 0.054714 -0.153184
v 0.074471 0.054714 -0.095558
v 0.124377 0.054714 -0.066745
v 0.174283 0.054714 -0.095558
v 0.174283 0.054714 -0.153184
v 0.124377 0.054714 -0.181997
v 0.124377 -0.000001 -0.124371
v -0.124364 -0.000001 0.124371
v -0.124364 0.054714 0.066745
v -0.074459 0.054714 0.095558
v -0.074459 0.054714 0.153184
v -0.124364 0.054714 0.181997
v -0.174270 0.054714 0.153184
v -0.174270 0.054714 0.095558
v -0.124364 -0.000001 0.076649
v -0.083036 -0.000001 0.100510
v -0.083036 -0.000001 0.148231
v -0.124364 -0.000001 0.172092
v -0.165692 -0.000001 0.148231
v -0.165692 -0.000001 0.100510
v -0.124364 -0.000001 -0.124371
v -0.124364 0.054714 -0.181997
v -0.074459 0.054714 -0.153184
v -0.074459 0.054714 -0.095558
v -0.124364 0.054714 -0.066745
v -0.174270 0.054714 -0.095558
v -0.174270 0.054714 -0.153184
v -0.124364 -0.000001 -0.172092
v -0.083036 -0.000001 -0.148231
v -0.083036 -0.000001 -0.100510
v -0.124364 -0.000001 -0.076649
v -0.165692 -0.000001 -0.100510
v -0.165692 -0.000001 -0.148231
v 0.143674 0.071699 -0.143674
v 0.000000 0.071699 -0.203186
v 0.203186 0.071699 0.000000
v 0.143674 0.071699 0.143674
v -0.000000 0.071699 0.203186
v -0.143674 0.071699 0.143674
v -0.203186 0.071699 0.000000
v -0.143674 0.071699 -0.143674
vt 1.000000 0.500000
vt 1.000000 1.000000
vt 0.875000 1.000000
vt 0.875000 0.500000
vt 1.000000 0.500000
vt 1.000000 1.000000
vt 0.833333 1.000000
vt 0.833333 0.500000
vt 0.666667 1.000000
vt 0.666667 0.500000
vt 0.500000 1.000000
vt 0.500000 0.500000
vt 0.333333 1.000000
vt 0.333333 0.500000
vt 0.166667 1.000000
vt 0.166667 0.500000
vt -0.000000 1.000000
vt -0.000000 0.500000
vt 0.750000 0.415173
vt 0.750000 0.490000
vt 0.957846 0.370000
vt 0.893044 0.332587
vt 0.957846 0.130000
vt 0.893044 0.167413
vt 0.750000 0.010000
vt 0.750000 0.084827
vt 0.542154 0.130000
vt 0.606956 0.167413
vt 0.542154 0.370000
vt 0.606956 0.332587
vt 0.166667 0.500000
vt 0.166667 1.000000
vt -0.000000 1.000000
vt -0.000000 0.500000
vt 0.500000 0.500000
vt 0.500000 1.000000
vt 0.333333 1.000000
vt 0.333333 0.500000
vt 0.666667 0.500000
vt 0.666667 1.000000
vt 0.833333 0.500000
vt 0.833333 1.000000
vt 1.000000 0.500000
vt 1.000000 1.000000
vt 0.606956 0.167413
vt 0.542154 0.130000
vt 0.542154 0.370000
vt 0.750000 0.084827
vt 0.750000 0.010000
vt 0.893044 0.167413
vt 0.957846 0.130000
vt 0.893044 0.332587
vt 0.957846 0.370000
vt 0.750000 0.415173
vt 0.750000 0.490000
vt 0.606956 0.332587
vt 1.000000 0.500000
vt 1.000000 1.000000
vt 0.833333 1.000000
vt 0.833333 0.500000
vt 0.666667 1.000000
vt 0.666667 0.500000
vt 0.500000 1.000000
vt 0.500000 0.500000
vt 0.333333 1.000000
vt 0.333333 0.500000
vt 0.166667 1.000000
vt 0.166667 0.500000
vt -0.000000 1.000000
vt -0.000000 0.500000
vt 0.750000 0.415173
vt 0.750000 0.490000
vt 0.957846 0.370000
vt 0.893044 0.332587
vt 0.957846 0.130000
vt 0.893044 0.167413
vt 0.750000 0.010000
vt 0.750000 0.084827
vt 0.542154 0.130000
vt 0.606956 0.167413
vt 0.542154 0.370000
vt 0.606956 0.332587
vt 1.000000 0.500000
vt 1.000000 1.000000
vt 0.833333 1.000000
vt 0.833333 0.500000
vt 0.666667 1.000000
vt 0.666667 0.500000
vt 0.500000 1.000000
vt 0.500000 0.500000
vt 0.333333 1.000000
vt 0.333333 0.500000
vt 0.166667 1.000000
vt 0.166667 0.500000
vt -0.000000 1.000000
vt -0.000000 0.500000
vt 0.750000 0.415173
vt 0.750000 0.490000
vt 0.957846 0.370000
vt 0.893044 0.332587
vt 0.957846 0.130000
vt 0.893044 0.167413
vt 0.750000 0.010000
vt 0.750000 0.084827
vt 0.542154 0.130000
vt 0.606956 0.167413
vt 0.542154 0.370000
vt 0.606956 0.332587
vt 0.750000 1.000000
vt 0.750000 0.500000
vt 0.625000 1.000000
vt 0.625000 0.500000
vt 0.500000 1.000000
vt 0.500000 0.500000
vt 0.375000 1.000000
vt 0.375000 0.500000
vt 0.250000 1.000000
vt 0.250000 0.500000
vt 0.250000 0.458956
vt 0.102246 0.397754
vt 0.102246 0.397754
vt 0.250000 0.458956
vt 0.125000 1.000000
vt 0.125000 0.500000
vt 0.000000 1.000000
vt 0.000000 0.500000
vt 0.750000 0.393206
vt 0.750000 0.490000
vt 0.919706 0.419706
vt 0.851262 0.351262
vt 0.990000 0.250000
vt 0.893206 0.250000
vt 0.919706 0.080294
vt 0.851262 0.148738
vt 0.750000 0.010000
vt 0.750000 0.106794
vt 0.580294 0.080294
vt 0.648738 0.148738
vt 0.510000 0.250000
vt 0.606794 0.250000
vt 0.580294 0.419706
vt 0.648738 0.351262
vt 0.397754 0.397754
vt 0.419706 0.419706
vt 0.250000 0.490000
vt 0.458956 0.250000
vt 0.490000 0.250000
vt 0.397754 0.102246
vt 0.419706 0.080294
vt 0.250000 0.041044
vt 0.250000 0.010000
vt 0.102246 0.102246
vt 0.080294 0.080294
vt 0.041044 0.250000
vt 0.010000 0.250000
vt 0.080294 0.419706
vt 0.102246 0.102246
vt 0.041044 0.250000
vt 0.397754 0.102246
vt 0.250000 0.041044
vt 0.397754 0.397754
vt 0.458956 0.250000
vt 0.373141 0.373141
vt 0.424148 0.250000
vt 0.373141 0.126859
vt 0.250000 0.075852
vt 0.126859 0.126859
vt 0.075852 0.250000
vt 0.126859 0.373141
vt 0.250000 0.424148
vn 0.0000 -0.4253 -0.9051
vn 0.6400 -0.4253 -0.6400
vn 0.4940 -0.1549 -0.8556
vn 0.9879 -0.1549 0.0000
vn 0.4940 -0.1549 0.8556
vn -0.4940 -0.1549 0.8556
vn -0.9879 -0.1549 0.0000
vn -0.4940 -0.1549 -0.8556
vn 0.0000 -1.0000 0.0000
vn 0.9051 -0.4253 -0.0000
vn 0.6400 -0.4253 0.6400
vn -0.0000 -0.4253 0.9051
vn -0.6400 -0.4253 0.6400
vn -0.9051 -0.4253 0.0000
vn 0.0000 0.8096 0.5870
vn 0.4151 0.8096 0.4151
vn -0.6400 -0.4253 -0.6400
vn 0.0000 1.0000 0.0000
vn 0.5870 0.8096 0.0000
vn 0.4151 0.8096 -0.4151
vn 0.0000 0.8096 -0.5870
vn -0.4151 0.8096 -0.4151
vn -0.5870 0.8096 -0.0000
vn -0.4151 0.8096 0.4151
usemtl Black
s 1
f 10/1/1 19/2/1 18/3/2 11/4/2
s off
f 34/5/3 28/6/3 29/7/3 35/8/3
f 35/8/4 29/7/4 30/9/4 36/10/4
f 36/10/5 30/9/5 31/11/5 37/12/5
f 37/12/6 31/11/6 32/13/6 38/14/6
f 38/14/7 32/13/7 33/15/7 39/16/7
f 39/16/8 33/15/8 28/17/8 34/18/8
f 27/19/9 34/20/9 35/21/9
f 27/22/9 35/21/9 36/23/9
f 27/24/9 36/23/9 37/25/9
f 27/26/9 37/25/9 38/27/9
f 27/28/9 38/27/9 39/29/9
f 27/30/9 39/29/9 34/20/9
f 40/31/8 46/32/8 51/33/8 45/34/8
f 42/35/6 48/36/6 47/37/6 41/38/6
f 43/39/5 49/40/5 48/36/5 42/35/5
f 44/41/4 50/42/4 49/40/4 43/39/4
f 45/43/3 51/44/3 50/42/3 44/41/3
f 41/38/7 47/37/7 46/32/7 40/31/7
f 52/45/9 41/46/9 40/47/9
f 52/48/9 42/49/9 41/46/9
f 52/50/9 43/51/9 42/49/9
f 52/52/9 44/53/9 43/51/9
f 52/54/9 45/55/9 44/53/9
f 52/56/9 40/47/9 45/55/9
f 60/57/3 54/58/3 55/59/3 61/60/3
f 61/60/4 55/59/4 56/61/4 62/62/4
f 62/62/5 56/61/5 57/63/5 63/64/5
f 63/64/6 57/63/6 58/65/6 64/66/6
f 64/66/7 58/65/7 59/67/7 65/68/7
f 65/68/8 59/67/8 54/69/8 60/70/8
f 53/71/9 60/72/9 61/73/9
f 53/74/9 61/73/9 62/75/9
f 53/76/9 62/75/9 63/77/9
f 53/78/9 63/77/9 64/79/9
f 53/80/9 64/79/9 65/81/9
f 53/82/9 65/81/9 60/72/9
f 73/83/3 67/84/3 68/85/3 74/86/3
f 74/86/4 68/85/4 69/87/4 75/88/4
f 75/88/5 69/87/5 70/89/5 76/90/5
f 76/90/6 70/89/6 71/91/6 77/92/6
f 77/92/7 71/91/7 72/93/7 78/94/7
f 78/94/8 72/93/8 67/95/8 73/96/8
f 66/97/9 73/98/9 74/99/9
f 66/100/9 74/99/9 75/101/9
f 66/102/9 75/101/9 76/103/9
f 66/104/9 76/103/9 77/105/9
f 66/106/9 77/105/9 78/107/9
f 66/108/9 78/107/9 73/98/9
s 2
f 11/4/2 18/3/2 20/109/10 12/110/10
s 3
f 12/110/10 20/109/10 21/111/11 13/112/11
s 4
f 13/112/11 21/111/11 22/113/12 14/114/12
s 5
f 14/114/12 22/113/12 23/115/13 15/116/13
s 6
f 15/116/13 23/115/13 24/117/14 16/118/14
s 7
f 2/119/15 9/120/16 86/121/16 80/122/15
s 8
f 16/118/14 24/117/14 25/123/17 17/124/17
s 9
f 17/124/17 25/123/17 19/125/1 10/126/1
s 10
f 1/127/9 10/128/9 11/129/9
s 11
f 1/130/9 11/129/9 12/131/9
s 12
f 1/132/9 12/131/9 13/133/9
s 13
f 1/134/9 13/133/9 14/135/9
s 14
f 1/136/9 14/135/9 15/137/9
s 15
f 1/138/9 15/137/9 16/139/9
s 16
f 1/140/9 16/139/9 17/141/9
s 17
f 1/142/9 17/141/9 10/128/9
s 18
f 2/119/18 3/143/18 18/144/18 19/145/18
s 19
f 3/143/18 4/146/18 20/147/18 18/144/18
s 20
f 4/146/18 5/148/18 21/149/18 20/147/18
s 21
f 5/148/18 6/150/18 22/151/18 21/149/18
s 22
f 6/150/18 7/152/18 23/153/18 22/151/18
s 23
f 7/152/18 8/154/18 24/155/18 23/153/18
s 24
f 8/154/18 9/120/18 25/156/18 24/155/18
s 25
f 9/120/18 2/119/18 19/145/18 25/156/18
s 26
f 8/154/19 7/152/20 84/157/20 85/158/19
s 27
f 6/150/21 5/148/22 82/159/22 83/160/21
s 28
f 4/146/23 3/143/24 79/161/24 81/162/23
s 29
f 9/120/16 8/154/19 85/158/19 86/121/16
s 30
f 7/152/20 6/150/21 83/160/21 84/157/20
s 31
f 5/148/22 4/146/23 81/162/23 82/159/22
s 32
f 3/143/24 2/119/15 80/122/15 79/161/24
s 81
f 26/163/18 79/161/18 80/122/18
s 82
f 26/164/18 81/162/18 79/161/18
s 83
f 26/165/18 82/159/18 81/162/18
s 84
f 26/166/18 83/160/18 82/159/18
s 85
f 26/167/18 84/157/18 83/160/18
s 86
f 26/168/18 85/158/18 84/157/18
s 87
f 26/169/18 86/121/18 85/158/18
s 88
f 26/170/18 80/122/18 86/121/18
